# xmcd
#
# Track frame offsets: 
#        150
#        12567
#        23675
#        37397
#        49482
#        61617
#        74032
#        86852
#        97682
#        109915
#        123595
#        136985
#        148610
#        160870
#        173245
#        185305
#        197560
#        210015
#        221910
#        234410
#        246257
#        257855
#        270362
#
# Disc length: 3794 seconds
#
# Revision: 4
# Processed by: cddbd v1.5.2PL0 Copyright (c) Steve Scherf et al.
# Submitted via: ExactAudioCopy v1.1
#
DISCID=520ed017
DTITLE=Gene Autry - Blues Singer 1929-1931 (Roots N' B;ues)
DYEAR=1996
DGENRE=Country
TTITLE0=Birmingham Daddy (mono)
TTITLE1=The Rheumatism Blues (mono)
TTITLE2=Dallas County Jail Blues (mono)
TTITLE3=Jail-House Blues (mono)
TTITLE4=I'm Atlanta Bound (mono)
TTITLE5=In the Jailhouse Now No. 2 (mono)
TTITLE6=Bear Cat Papa Blues (mono)
TTITLE7=Wildcat Mama Blues (mono)
TTITLE8=High Steppin' Mama Blues (mono)
TTITLE9=A Yodeling Hobo (mono)
TTITLE10=T.B. Blues (mono)
TTITLE11=California Blues (Blue Yodel #4) (mono)
TTITLE12=Slu-Foot Lou (mono)
TTITLE13=Stay Away From My Chicken House (mono)
TTITLE14=Waiting For A Train (mono)
TTITLE15=Frankie And Johnny (mono)
TTITLE16=Do Right Daddy Blues (mono)
TTITLE17=Blue Yodel No. 5 (mono)
TTITLE18=My Rough And Rowdy Ways (mono)
TTITLE19=Left My Gal In The Mountains (mono)
TTITLE20=I've Always Been A Rambler (mono)
TTITLE21=Dust Pan Blues (mono)
TTITLE22=That's Why I Left The Mountains (mono)
EXTD=CD subtitle: "Booger Rooger Saturday Nite!"\n(Orvon) Gene Autry (
EXTD=1907/1998): vocals, yodeling, guitar\nRoy Smeck (1900/1994): banj
EXTD=o (tracks 1,5,8,9), steel guitar (2,3,11]\nFrank Marvin (1904/198
EXTD=5): steel guitar (7,21,23), animal imitations (14]\nRecorded New 
EXTD=York US-NY, 1929-10-24/1931-11-16.\nRoots n' Blues series produce
EXTD=r: Lawrence Cohn\nArchival restoration and mastering by David Mit
EXTD=son, Sony Music Studios, Los Angeles US-CA.\nCD: Columbia/Legacy 
EXTD=CK 64987 (1996-10-08), UPC 074646498729.
EXTT0=(Gene Autry)
EXTT1=(Gene Autry)
EXTT2=(Gene Autry/W.R. Calaway)
EXTT3=(Gene Autry)
EXTT4=(Gene Autry)
EXTT5=(Jimmie Rodgers)
EXTT6=(Gene Autry/Frankie Marvin)
EXTT7=(Gene Autry)
EXTT8=(Gene Autry)
EXTT9=(Gene Autry)
EXTT10=(Jimmie Rodgers/Raymond Hall)
EXTT11=(Jimmie Rodgers)
EXTT12=(Frankie Marvin)
EXTT13=(Frankie Marvin/Johnny Marvin)
EXTT14=(Jimmie Rodgers)
EXTT15=(trad./Jimmie Rodgers)
EXTT16=(Gene Autry)
EXTT17=(Jimmie Rodgers)
EXTT18=(Jimmie Rodgers/Elsie McWilliams)
EXTT19=(Carson J. Robison)
EXTT20=(Henry Whitter/G.B. Grayson)
EXTT21=(Frankie Marvin/Johnny Marvin)
EXTT22=(A. Fields/Fred Hall)
PLAYORDER=
